<?xml version="1.0" encoding="iso-8859-1"?>
<!-- Uploaded to: SVG Repo, www.svgrepo.com, Generator: SVG Repo Mixer Tools -->
<svg version="1.1" id="Layer_1" xmlns="http://www.w3.org/2000/svg" xmlns:xlink="http://www.w3.org/1999/xlink" 
	 viewBox="0 0 512 512" xml:space="preserve">
<g>
	<path style="fill:#d18700;" d="M162.887,434.738c0,37.038,30.025,67.063,67.063,67.063h52.098
		c37.038,0,67.063-30.025,67.063-67.063v-22.724H162.887V434.738z"/>
	<rect x="162.883" y="82.799" style="fill:#d18700;" width="186.22" height="181.794"/>
</g>
<rect x="162.883" y="264.592" style="fill:#FFFFFF;" width="186.22" height="147.432"/>
<g>
	<path style="fill:#603813;" d="M263.959,2.979c-2.181-2.182-5.104-3.16-7.957-2.952c-2.855-0.209-5.78,0.769-7.963,2.952
		l-69.585,69.618h-15.566c-5.633,0-10.199,4.566-10.199,10.199v351.941c0,42.603,34.659,77.262,77.262,77.262h52.098
		c42.603,0,77.262-34.659,77.262-77.262V82.796c0-5.633-4.567-10.199-10.199-10.199h-15.567L263.959,2.979z M338.912,351.102
		l-165.825,14.882v-32.201l105.742-14.765c5.579-0.779,9.47-5.933,8.691-11.512c-0.779-5.578-5.929-9.468-11.512-8.691
		l-102.921,14.371v-38.401h165.825L338.912,351.102L338.912,351.102z M173.086,386.465l165.825-14.882v30.232H173.086V386.465z
		 M304.728,72.597h-38.529V34.068L304.728,72.597z M245.8,34.068v38.53h-38.529L245.8,34.068z M173.086,92.996h165.825v161.392
		H173.086V92.996z M338.912,434.738c0,31.355-25.509,56.864-56.863,56.864H229.95c-31.355,0-56.863-25.509-56.863-56.864v-12.525
		h165.825L338.912,434.738L338.912,434.738z"/>
	<path style="fill:#603813;" d="M309.022,314.704c0.47,0,0.945-0.033,1.424-0.1l4.08-0.57c5.579-0.779,9.47-5.933,8.691-11.512
		c-0.78-5.58-5.943-9.467-11.512-8.691l-4.08,0.57c-5.579,0.779-9.47,5.933-8.691,11.512
		C299.647,311.014,304.016,314.704,309.022,314.704z"/>
</g>
</svg>