<?xml version="1.0" encoding="UTF-8"?><svg xmlns="http://www.w3.org/2000/svg" xmlns:xlink="http://www.w3.org/1999/xlink" height="340.3" preserveAspectRatio="xMidYMid meet" version="1.0" viewBox="115.0 51.4 272.9 340.3" width="272.9" zoomAndPan="magnify"><g><g id="change1_1"><path d="M 240.894531 187.359375 L 237.894531 187.359375 L 237.894531 51.4375 L 240.894531 51.4375 L 240.894531 187.359375" fill="#ca92ff"/></g><g id="change2_1"><path d="M 363.832031 267.300781 C 363.832031 198.578125 308.117188 142.867188 239.394531 142.867188 C 170.671875 142.867188 114.960938 198.578125 114.960938 267.300781 C 114.960938 336.023438 170.671875 391.734375 239.394531 391.734375 C 308.117188 391.734375 363.832031 336.023438 363.832031 267.300781" fill="#fff"/></g><g id="change3_1"><path d="M 211.527344 289.355469 C 199.546875 288.921875 187.964844 288.203125 177.070312 287.222656 C 176.519531 280.65625 176.238281 273.960938 176.238281 267.300781 C 176.238281 260.644531 176.519531 253.945312 177.070312 247.382812 C 187.964844 246.398438 199.546875 245.683594 211.527344 245.246094 C 211.273438 252.488281 211.148438 259.902344 211.148438 267.300781 C 211.148438 274.699219 211.273438 282.109375 211.527344 289.355469" fill="#c744f2"/></g><g id="change4_1"><path d="M 177.183594 321.679688 C 164.796875 318.816406 153.464844 315.125 143.476562 310.699219 C 141.085938 303.089844 139.324219 295.164062 138.238281 287.113281 C 148.136719 288.96875 159.496094 290.527344 172.039062 291.75 C 173.089844 302.074219 174.820312 312.132812 177.183594 321.679688" fill="#925be8"/></g><g id="change1_2"><path d="M 177.550781 242.339844 C 178.679688 231.683594 180.539062 221.363281 183.082031 211.640625 C 193.011719 209.605469 203.464844 208.121094 214.179688 207.214844 C 213.046875 217.59375 212.222656 228.710938 211.722656 240.292969 C 199.828125 240.710938 188.34375 241.398438 177.550781 242.339844" fill="#ca92ff"/></g><g id="change1_3"><path d="M 274.90625 165.460938 C 268.871094 164.316406 262.699219 163.460938 256.515625 162.910156 C 254.777344 157.039062 252.882812 152.179688 250.871094 148.421875 C 253.195312 148.640625 255.511719 148.929688 257.777344 149.277344 C 263.871094 152.945312 269.625 158.382812 274.90625 165.460938" fill="#ca92ff"/></g><g id="change5_1"><path d="M 227.5 162.515625 C 229.46875 156.148438 231.582031 151.273438 233.789062 148 C 235.691406 147.910156 237.574219 147.867188 239.394531 147.867188 C 241.214844 147.867188 243.097656 147.910156 245 148 C 247.207031 151.273438 249.320312 156.148438 251.289062 162.515625 C 247.332031 162.269531 243.339844 162.148438 239.394531 162.148438 C 235.453125 162.148438 231.457031 162.269531 227.5 162.515625" fill="#8849a5"/></g><g id="change1_4"><path d="M 203.882812 165.460938 C 209.164062 158.382812 214.917969 152.945312 221.011719 149.277344 C 223.28125 148.929688 225.597656 148.640625 227.921875 148.421875 C 225.90625 152.179688 224.011719 157.039062 222.273438 162.910156 C 216.089844 163.460938 209.917969 164.316406 203.882812 165.460938" fill="#ca92ff"/></g><g id="change5_2"><path d="M 138.238281 247.488281 C 139.324219 239.4375 141.085938 231.511719 143.476562 223.898438 C 153.464844 219.476562 164.796875 215.785156 177.183594 212.925781 C 174.820312 222.46875 173.09375 232.523438 172.039062 242.851562 C 159.488281 244.074219 148.128906 245.636719 138.238281 247.488281" fill="#8849a5"/></g><g id="change1_5"><path d="M 294.0625 205.75 C 284.414062 203.878906 274.304688 202.507812 263.96875 201.667969 C 262.4375 189.1875 260.488281 178.199219 258.167969 168.96875 C 265.453125 169.699219 272.664062 170.863281 279.628906 172.429688 C 285.441406 181.859375 290.292969 193.0625 294.0625 205.75" fill="#ca92ff"/></g><g id="change1_6"><path d="M 136.425781 307.335938 C 132.121094 305.121094 128.148438 302.765625 124.589844 300.308594 C 122.980469 294.710938 121.78125 288.945312 121.011719 283.15625 C 124.421875 284.121094 128.183594 285.046875 132.222656 285.910156 C 133.105469 293.179688 134.519531 300.371094 136.425781 307.335938" fill="#ca92ff"/></g><g id="change4_2"><path d="M 131.671875 280.675781 C 127.558594 279.769531 123.78125 278.800781 120.417969 277.792969 C 120.113281 274.300781 119.960938 270.773438 119.960938 267.300781 C 119.960938 263.828125 120.113281 260.300781 120.417969 256.808594 C 123.78125 255.800781 127.558594 254.835938 131.671875 253.925781 C 131.289062 258.363281 131.09375 262.855469 131.09375 267.300781 C 131.09375 271.746094 131.289062 276.238281 131.671875 280.675781" fill="#925be8"/></g><g id="change1_7"><path d="M 171.582031 286.703125 C 160.496094 285.589844 150.273438 284.199219 141.183594 282.566406 C 139.96875 282.351562 138.785156 282.128906 137.625 281.902344 C 137.148438 277.0625 136.90625 272.15625 136.90625 267.300781 C 136.90625 262.445312 137.148438 257.535156 137.625 252.695312 C 138.785156 252.472656 139.96875 252.253906 141.183594 252.035156 C 150.273438 250.402344 160.496094 249.015625 171.582031 247.898438 C 171.066406 254.316406 170.804688 260.835938 170.804688 267.300781 C 170.804688 273.765625 171.066406 280.285156 171.582031 286.703125" fill="#ca92ff"/></g><g id="change1_8"><path d="M 121.011719 251.445312 C 121.78125 245.652344 122.980469 239.894531 124.589844 234.292969 C 128.144531 231.839844 132.117188 229.480469 136.425781 227.265625 C 134.519531 234.226562 133.105469 241.421875 132.222656 248.691406 C 128.183594 249.554688 124.421875 250.480469 121.011719 251.445312" fill="#ca92ff"/></g><g id="change4_3"><path d="M 184.726562 205.75 C 188.496094 193.0625 193.347656 181.859375 199.160156 172.429688 C 206.128906 170.863281 213.339844 169.699219 220.621094 168.96875 C 218.300781 178.199219 216.351562 189.1875 214.820312 201.667969 C 204.488281 202.507812 194.375 203.878906 184.726562 205.75" fill="#925be8"/></g><g id="change1_9"><path d="M 340.554688 247.488281 C 330.660156 245.636719 319.300781 244.074219 306.753906 242.851562 C 305.699219 232.527344 303.972656 222.472656 301.609375 212.921875 C 313.996094 215.785156 325.324219 219.476562 335.3125 223.898438 C 337.703125 231.515625 339.464844 239.441406 340.554688 247.488281" fill="#ca92ff"/></g><g id="change5_3"><path d="M 307.210938 286.703125 C 307.722656 280.289062 307.984375 273.769531 307.984375 267.300781 C 307.984375 260.828125 307.722656 254.308594 307.210938 247.898438 C 318.296875 249.015625 328.515625 250.402344 337.609375 252.035156 C 338.820312 252.253906 340.003906 252.472656 341.167969 252.695312 C 341.644531 257.53125 341.886719 262.441406 341.886719 267.300781 C 341.886719 272.160156 341.644531 277.066406 341.167969 281.902344 C 340.003906 282.128906 338.820312 282.351562 337.609375 282.566406 C 328.519531 284.195312 318.296875 285.589844 307.210938 286.703125" fill="#8849a5"/></g><g id="change5_4"><path d="M 357.78125 251.445312 C 354.367188 250.480469 350.605469 249.554688 346.570312 248.691406 C 345.683594 241.421875 344.273438 234.230469 342.363281 227.265625 C 346.671875 229.480469 350.644531 231.839844 354.203125 234.292969 C 355.808594 239.894531 357.011719 245.652344 357.78125 251.445312" fill="#8849a5"/></g><g id="change1_10"><path d="M 267.261719 289.355469 C 267.515625 282.105469 267.644531 274.691406 267.644531 267.300781 C 267.644531 259.90625 267.515625 252.492188 267.261719 245.246094 C 279.242188 245.683594 290.828125 246.398438 301.722656 247.382812 C 302.273438 253.945312 302.550781 260.644531 302.550781 267.300781 C 302.550781 273.957031 302.273438 280.652344 301.722656 287.222656 C 290.828125 288.203125 279.242188 288.921875 267.261719 289.355469" fill="#ca92ff"/></g><g id="change3_2"><path d="M 258.945312 201.300781 C 252.484375 200.886719 245.914062 200.675781 239.394531 200.675781 C 232.878906 200.675781 226.304688 200.886719 219.84375 201.300781 C 221.433594 188.652344 223.433594 177.636719 225.800781 168.519531 C 230.34375 168.191406 234.910156 168.023438 239.394531 168.023438 C 243.878906 168.023438 248.449219 168.191406 252.992188 168.519531 C 255.359375 177.640625 257.359375 188.65625 258.945312 201.300781" fill="#c744f2"/></g><g id="change1_11"><path d="M 347.117188 280.675781 C 347.503906 276.238281 347.699219 271.746094 347.699219 267.300781 C 347.699219 262.855469 347.503906 258.363281 347.117188 253.925781 C 351.234375 254.835938 355.011719 255.800781 358.371094 256.808594 C 358.675781 260.300781 358.828125 263.828125 358.828125 267.300781 C 358.828125 270.773438 358.675781 274.300781 358.371094 277.792969 C 355.011719 278.800781 351.234375 279.769531 347.117188 280.675781" fill="#ca92ff"/></g><g id="change1_12"><path d="M 216.640625 240.136719 C 217.164062 228.5 218.019531 217.308594 219.1875 206.835938 C 225.867188 206.386719 232.660156 206.160156 239.394531 206.160156 C 246.128906 206.160156 252.925781 206.386719 259.605469 206.835938 C 260.773438 217.296875 261.628906 228.488281 262.148438 240.136719 C 254.6875 239.925781 247.039062 239.816406 239.394531 239.816406 C 231.75 239.816406 224.101562 239.925781 216.640625 240.136719" fill="#ca92ff"/></g><g id="change4_4"><path d="M 239.394531 289.855469 C 231.820312 289.855469 224.105469 289.742188 216.441406 289.515625 C 216.179688 282.1875 216.042969 274.722656 216.042969 267.300781 C 216.042969 259.882812 216.179688 252.414062 216.441406 245.085938 C 224.101562 244.859375 231.820312 244.742188 239.394531 244.742188 C 246.972656 244.742188 254.6875 244.859375 262.347656 245.085938 C 262.613281 252.402344 262.746094 259.871094 262.746094 267.300781 C 262.746094 274.730469 262.613281 282.199219 262.347656 289.515625 C 254.6875 289.742188 246.96875 289.855469 239.394531 289.855469" fill="#925be8"/></g><g id="change1_13"><path d="M 239.394531 328.441406 C 232.660156 328.441406 225.867188 328.214844 219.1875 327.765625 C 218.019531 317.292969 217.164062 306.101562 216.640625 294.464844 C 224.105469 294.679688 231.753906 294.785156 239.394531 294.785156 C 247.035156 294.785156 254.683594 294.679688 262.148438 294.464844 C 261.628906 306.109375 260.773438 317.308594 259.605469 327.765625 C 252.925781 328.214844 246.128906 328.441406 239.394531 328.441406" fill="#ca92ff"/></g><g id="change1_14"><path d="M 239.394531 366.574219 C 234.910156 366.574219 230.34375 366.410156 225.800781 366.078125 C 223.433594 356.964844 221.433594 345.945312 219.84375 333.304688 C 226.304688 333.71875 232.878906 333.925781 239.394531 333.925781 C 245.914062 333.925781 252.484375 333.71875 258.945312 333.304688 C 257.359375 345.945312 255.359375 356.964844 252.992188 366.082031 C 248.453125 366.410156 243.882812 366.574219 239.394531 366.574219" fill="#ca92ff"/></g><g id="change4_5"><path d="M 301.242188 242.339844 C 290.449219 241.398438 278.964844 240.710938 267.070312 240.292969 C 266.566406 228.707031 265.742188 217.589844 264.609375 207.214844 C 275.328125 208.121094 285.78125 209.605469 295.710938 211.640625 C 298.25 221.363281 300.109375 231.683594 301.242188 242.339844" fill="#925be8"/></g><g id="change5_5"><path d="M 323.414062 182.414062 C 322.058594 181.679688 320.6875 180.96875 319.308594 180.273438 C 317.789062 178.292969 316.210938 176.363281 314.582031 174.492188 C 317.652344 176.980469 320.601562 179.628906 323.414062 182.414062" fill="#8849a5"/></g><g id="change3_3"><path d="M 191.898438 360.367188 C 181.800781 357.636719 172.160156 354.027344 163.214844 349.636719 C 156.035156 340.046875 150.191406 329.265625 145.832031 317.5625 C 155.753906 321.609375 166.8125 324.984375 178.75 327.609375 C 182.1875 339.828125 186.605469 350.832031 191.898438 360.367188" fill="#c744f2"/></g><g id="change4_6"><path d="M 269.914062 382.789062 C 274.414062 378.601562 278.660156 373.480469 282.574219 367.519531 C 290.988281 365.542969 299.171875 362.972656 306.972656 359.855469 C 300.199219 367.023438 292.679688 373.074219 284.570312 377.886719 C 279.816406 379.832031 274.902344 381.476562 269.914062 382.789062" fill="#925be8"/></g><g id="change1_15"><path d="M 214.179688 327.386719 C 203.464844 326.480469 193.011719 324.992188 183.082031 322.964844 C 180.539062 313.238281 178.679688 302.917969 177.550781 292.261719 C 188.339844 293.203125 199.824219 293.890625 211.722656 294.308594 C 212.222656 305.894531 213.046875 317.007812 214.179688 327.386719" fill="#ca92ff"/></g><g id="change5_6"><path d="M 171.816406 174.742188 C 178.59375 167.578125 186.113281 161.523438 194.21875 156.714844 C 198.972656 154.769531 203.886719 153.128906 208.875 151.8125 C 204.375 156 200.128906 161.117188 196.214844 167.082031 C 187.804688 169.058594 179.617188 171.632812 171.816406 174.742188" fill="#8849a5"/></g><g id="change3_4"><path d="M 127.214844 226.226562 C 130.960938 216 136.101562 206.328125 142.523438 197.4375 C 145.558594 195.214844 148.75 193.085938 152.050781 191.078125 C 146.507812 200.066406 141.980469 209.851562 138.558594 220.214844 C 134.546875 222.097656 130.742188 224.113281 127.214844 226.226562" fill="#c744f2"/></g><g id="change1_16"><path d="M 145.832031 217.035156 C 150.191406 205.339844 156.035156 194.558594 163.214844 184.964844 C 172.160156 180.570312 181.800781 176.96875 191.898438 174.230469 C 186.605469 183.769531 182.1875 194.773438 178.75 206.992188 C 166.816406 209.613281 155.757812 212.992188 145.832031 217.035156" fill="#ca92ff"/></g><g id="change1_17"><path d="M 152.050781 343.519531 C 148.75 341.515625 145.558594 339.386719 142.523438 337.164062 C 136.101562 328.273438 130.960938 318.601562 127.214844 308.375 C 130.742188 310.488281 134.546875 312.503906 138.558594 314.386719 C 141.980469 324.753906 146.507812 334.53125 152.050781 343.519531" fill="#ca92ff"/></g><g id="change4_7"><path d="M 164.210938 360.109375 C 161.140625 357.621094 158.191406 354.976562 155.375 352.1875 C 156.734375 352.921875 158.105469 353.636719 159.480469 354.324219 C 161.003906 356.308594 162.582031 358.238281 164.210938 360.109375" fill="#925be8"/></g><g id="change1_18"><path d="M 314.582031 360.109375 C 316.210938 358.238281 317.789062 356.308594 319.308594 354.324219 C 320.6875 353.636719 322.054688 352.921875 323.414062 352.1875 C 320.601562 354.976562 317.652344 357.621094 314.582031 360.109375" fill="#ca92ff"/></g><g id="change3_5"><path d="M 286.890625 360.367188 C 292.183594 350.832031 296.601562 339.824219 300.039062 327.609375 C 311.976562 324.984375 323.035156 321.609375 332.960938 317.5625 C 328.597656 329.265625 322.757812 340.046875 315.578125 349.636719 C 306.628906 354.027344 296.988281 357.636719 286.890625 360.367188" fill="#c744f2"/></g><g id="change5_7"><path d="M 326.742188 343.519531 C 332.28125 334.53125 336.8125 324.753906 340.230469 314.386719 C 344.242188 312.507812 348.046875 310.488281 351.578125 308.375 C 347.832031 318.601562 342.691406 328.273438 336.265625 337.164062 C 333.234375 339.386719 330.042969 341.515625 326.742188 343.519531" fill="#8849a5"/></g><g id="change4_8"><path d="M 155.378906 182.414062 C 158.191406 179.628906 161.136719 176.980469 164.207031 174.492188 C 162.578125 176.363281 161 178.296875 159.480469 180.273438 C 158.105469 180.96875 156.734375 181.679688 155.378906 182.414062" fill="#925be8"/></g><g id="change1_19"><path d="M 208.875 382.789062 C 203.886719 381.476562 198.972656 379.832031 194.21875 377.886719 C 186.113281 373.074219 178.59375 367.023438 171.816406 359.855469 C 179.617188 362.972656 187.804688 365.542969 196.214844 367.519531 C 200.128906 373.480469 204.375 378.601562 208.875 382.789062" fill="#ca92ff"/></g><g id="change4_9"><path d="M 258.167969 365.632812 C 260.488281 356.402344 262.4375 345.414062 263.96875 332.9375 C 274.304688 332.097656 284.417969 330.722656 294.0625 328.851562 C 290.292969 341.539062 285.441406 352.742188 279.628906 362.171875 C 272.660156 363.738281 265.449219 364.898438 258.167969 365.632812" fill="#925be8"/></g><g id="change5_8"><path d="M 250.871094 386.183594 C 252.882812 382.421875 254.777344 377.5625 256.515625 371.691406 C 262.699219 371.144531 268.871094 370.285156 274.90625 369.140625 C 269.625 376.222656 263.871094 381.65625 257.777344 385.324219 C 255.511719 385.675781 253.195312 385.960938 250.871094 386.183594" fill="#8849a5"/></g><g id="change1_20"><path d="M 239.394531 386.734375 C 237.574219 386.734375 235.691406 386.691406 233.792969 386.601562 C 231.582031 383.328125 229.46875 378.453125 227.5 372.089844 C 231.457031 372.332031 235.453125 372.453125 239.394531 372.453125 C 243.34375 372.453125 247.335938 372.332031 251.289062 372.089844 C 249.320312 378.453125 247.210938 383.328125 245 386.601562 C 243.097656 386.691406 241.214844 386.734375 239.394531 386.734375" fill="#ca92ff"/></g><g id="change5_9"><path d="M 220.621094 365.632812 C 213.339844 364.898438 206.128906 363.738281 199.160156 362.171875 C 193.347656 352.738281 188.496094 341.539062 184.726562 328.851562 C 194.375 330.722656 204.488281 332.097656 214.820312 332.9375 C 216.355469 345.417969 218.304688 356.402344 220.621094 365.632812" fill="#8849a5"/></g><g id="change3_6"><path d="M 227.921875 386.183594 C 225.59375 385.960938 223.277344 385.675781 221.011719 385.324219 C 214.917969 381.65625 209.164062 376.21875 203.882812 369.140625 C 209.917969 370.285156 216.089844 371.144531 222.273438 371.691406 C 224.011719 377.5625 225.90625 382.421875 227.921875 386.183594" fill="#c744f2"/></g><g id="change1_21"><path d="M 301.609375 321.679688 C 303.972656 312.132812 305.699219 302.074219 306.753906 291.75 C 319.296875 290.527344 330.652344 288.96875 340.554688 287.113281 C 339.464844 295.160156 337.703125 303.089844 335.3125 310.699219 C 325.324219 315.125 313.996094 318.816406 301.609375 321.679688" fill="#ca92ff"/></g><g id="change3_7"><path d="M 332.960938 217.035156 C 323.03125 212.992188 311.972656 209.613281 300.039062 206.992188 C 296.605469 194.777344 292.1875 183.769531 286.890625 174.230469 C 296.992188 176.96875 306.628906 180.570312 315.578125 184.964844 C 322.757812 194.558594 328.597656 205.335938 332.960938 217.035156" fill="#c744f2"/></g><g id="change1_22"><path d="M 351.578125 226.226562 C 348.046875 224.113281 344.246094 222.097656 340.230469 220.214844 C 336.8125 209.847656 332.28125 200.066406 326.742188 191.078125 C 330.039062 193.085938 333.230469 195.214844 336.265625 197.4375 C 342.6875 206.328125 347.832031 216 351.578125 226.226562" fill="#ca92ff"/></g><g id="change4_10"><path d="M 264.609375 327.386719 C 265.742188 317.011719 266.566406 305.894531 267.070312 294.308594 C 278.964844 293.890625 290.449219 293.203125 301.242188 292.261719 C 300.109375 302.917969 298.25 313.238281 295.710938 322.964844 C 285.78125 324.992188 275.328125 326.480469 264.609375 327.386719" fill="#925be8"/></g><g id="change4_11"><path d="M 306.972656 174.742188 C 299.171875 171.632812 290.988281 169.058594 282.574219 167.082031 C 278.660156 161.117188 274.414062 156 269.914062 151.8125 C 274.902344 153.128906 279.820312 154.769531 284.574219 156.714844 C 292.679688 161.523438 300.199219 167.578125 306.972656 174.742188" fill="#925be8"/></g><g id="change3_8"><path d="M 342.363281 307.339844 C 344.273438 300.371094 345.683594 293.179688 346.570312 285.910156 C 350.601562 285.050781 354.363281 284.125 357.78125 283.15625 C 357.011719 288.949219 355.808594 294.710938 354.203125 300.308594 C 350.644531 302.765625 346.671875 305.121094 342.363281 307.339844" fill="#c744f2"/></g><g id="change2_2"><path d="M 196.445312 206.566406 C 186.742188 203.746094 183.136719 200.144531 180.316406 190.4375 C 179.804688 188.675781 177.296875 188.675781 176.78125 190.4375 C 173.960938 200.144531 170.355469 203.746094 160.652344 206.566406 C 158.890625 207.078125 158.890625 209.589844 160.652344 210.101562 C 170.355469 212.921875 173.960938 216.527344 176.78125 226.230469 C 177.296875 227.992188 179.804688 227.992188 180.316406 226.230469 C 183.136719 216.527344 186.742188 212.921875 196.445312 210.101562 C 198.210938 209.589844 198.210938 207.078125 196.445312 206.566406" fill="#fff"/></g><g id="change3_9"><path d="M 177.21875 136.222656 C 170.007812 134.125 167.332031 131.449219 165.234375 124.238281 C 164.855469 122.929688 162.992188 122.929688 162.609375 124.238281 C 160.515625 131.449219 157.839844 134.125 150.628906 136.222656 C 149.320312 136.601562 149.320312 138.464844 150.628906 138.847656 C 157.839844 140.941406 160.515625 143.621094 162.609375 150.828125 C 162.992188 152.140625 164.855469 152.140625 165.234375 150.828125 C 167.332031 143.621094 170.007812 140.941406 177.21875 138.847656 C 178.527344 138.464844 178.527344 136.601562 177.21875 136.222656" fill="#c744f2"/></g><g id="change1_23"><path d="M 142.535156 162.722656 C 139.484375 161.835938 138.347656 160.699219 137.460938 157.644531 C 137.300781 157.09375 136.511719 157.09375 136.347656 157.644531 C 135.460938 160.699219 134.328125 161.835938 131.273438 162.722656 C 130.71875 162.882812 130.71875 163.671875 131.273438 163.832031 C 134.328125 164.722656 135.460938 165.855469 136.347656 168.90625 C 136.511719 169.464844 137.300781 169.464844 137.460938 168.90625 C 138.347656 165.855469 139.484375 164.722656 142.535156 163.832031 C 143.089844 163.671875 143.089844 162.882812 142.535156 162.722656" fill="#ca92ff"/></g><g id="change2_3"><path d="M 315.480469 324.183594 C 305.777344 321.359375 302.175781 317.757812 299.355469 308.054688 C 298.839844 306.289062 296.332031 306.289062 295.820312 308.054688 C 293 317.757812 289.394531 321.359375 279.691406 324.183594 C 277.925781 324.695312 277.925781 327.203125 279.691406 327.714844 C 289.394531 330.535156 293 334.140625 295.820312 343.84375 C 296.332031 345.609375 298.839844 345.609375 299.355469 343.84375 C 302.175781 334.140625 305.777344 330.535156 315.480469 327.714844 C 317.246094 327.203125 317.246094 324.695312 315.480469 324.183594" fill="#fff"/></g><g id="change2_4"><path d="M 207.464844 232.5625 C 203.140625 231.308594 201.53125 229.699219 200.273438 225.371094 C 200.046875 224.585938 198.925781 224.585938 198.695312 225.371094 C 197.4375 229.699219 195.832031 231.308594 191.503906 232.5625 C 190.71875 232.792969 190.71875 233.910156 191.503906 234.140625 C 195.832031 235.398438 197.4375 237.007812 198.695312 241.335938 C 198.925781 242.121094 200.046875 242.121094 200.273438 241.335938 C 201.53125 237.007812 203.140625 235.398438 207.464844 234.140625 C 208.253906 233.910156 208.253906 232.792969 207.464844 232.5625" fill="#fff"/></g><g id="change1_24"><path d="M 360.953125 363.933594 C 356.628906 362.675781 355.019531 361.066406 353.761719 356.738281 C 353.53125 355.953125 352.414062 355.953125 352.1875 356.738281 C 350.929688 361.066406 349.320312 362.675781 344.992188 363.933594 C 344.207031 364.160156 344.207031 365.277344 344.992188 365.507812 C 349.320312 366.765625 350.929688 368.371094 352.1875 372.699219 C 352.414062 373.488281 353.53125 373.488281 353.761719 372.699219 C 355.019531 368.371094 356.628906 366.765625 360.953125 365.507812 C 361.742188 365.277344 361.742188 364.160156 360.953125 363.933594" fill="#ca92ff"/></g><g id="change2_5"><path d="M 176.847656 338.179688 C 172.519531 336.921875 170.910156 335.3125 169.652344 330.984375 C 169.425781 330.199219 168.304688 330.199219 168.078125 330.984375 C 166.820312 335.3125 165.210938 336.921875 160.882812 338.179688 C 160.097656 338.40625 160.097656 339.527344 160.882812 339.753906 C 165.210938 341.011719 166.820312 342.621094 168.078125 346.949219 C 168.304688 347.734375 169.425781 347.734375 169.652344 346.949219 C 170.910156 342.621094 172.519531 341.011719 176.847656 339.753906 C 177.632812 339.527344 177.632812 338.40625 176.847656 338.179688" fill="#fff"/></g><g id="change5_10"><path d="M 386.816406 341.203125 C 380.808594 339.457031 378.574219 337.226562 376.828125 331.214844 C 376.511719 330.121094 374.957031 330.121094 374.640625 331.214844 C 372.894531 337.226562 370.660156 339.457031 364.648438 341.203125 C 363.558594 341.523438 363.558594 343.074219 364.648438 343.394531 C 370.660156 345.140625 372.894531 347.375 374.640625 353.382812 C 374.957031 354.476562 376.511719 354.476562 376.828125 353.382812 C 378.574219 347.375 380.808594 345.140625 386.816406 343.394531 C 387.910156 343.074219 387.910156 341.523438 386.816406 341.203125" fill="#8849a5"/></g></g></svg>